<?xml version="1.0" encoding="UTF-8" standalone="no"?><!DOCTYPE svg PUBLIC "-//W3C//DTD SVG 1.1//EN" "http://www.w3.org/Graphics/SVG/1.1/DTD/svg11.dtd"><svg width="100%" height="100%" viewBox="0 0 125 125" version="1.1" xmlns="http://www.w3.org/2000/svg" xmlns:xlink="http://www.w3.org/1999/xlink" xml:space="preserve" xmlns:serif="http://www.serif.com/" style="fill-rule:evenodd;clip-rule:evenodd;stroke-linejoin:round;stroke-miterlimit:2;"><path d="M31.25,62.5c0,-17.247 14.003,-31.25 31.25,-31.25c17.247,0 31.25,14.003 31.25,31.25c0,17.247 -14.003,31.25 -31.25,31.25c-17.247,0 -31.25,-14.003 -31.25,-31.25Z" style="fill:#fff;"/><clipPath id="_clip1"><path d="M31.25,62.5c0,-17.247 14.003,-31.25 31.25,-31.25c17.247,0 31.25,14.003 31.25,31.25c0,17.247 -14.003,31.25 -31.25,31.25c-17.247,0 -31.25,-14.003 -31.25,-31.25Z"/></clipPath><g clip-path="url(#_clip1)"><rect x="59.366" y="40.674" width="6.25" height="43.75" style="fill:#454545;"/><path d="M40.674,59.384l0,6.25l43.75,0l0,-6.25l-43.75,0Z" style="fill:#454545;"/></g></svg>