<?xml version="1.0" encoding="UTF-8" standalone="no"?><!DOCTYPE svg PUBLIC "-//W3C//DTD SVG 1.1//EN" "http://www.w3.org/Graphics/SVG/1.1/DTD/svg11.dtd"><svg width="100%" height="100%" viewBox="0 0 125 125" version="1.1" xmlns="http://www.w3.org/2000/svg" xmlns:xlink="http://www.w3.org/1999/xlink" xml:space="preserve" xmlns:serif="http://www.serif.com/" style="fill-rule:evenodd;clip-rule:evenodd;stroke-linejoin:round;stroke-miterlimit:2;"><rect x="37.945" y="61.338" width="49.29" height="32.412" style="fill:#fff;"/><rect x="37.933" y="61.941" width="49.305" height="32.403" style="fill:#fff;"/><path d="M62.586,37.631l24.652,24.31l-49.305,-0l24.653,-24.31Z" style="fill:#fff;"/><path d="M93.583,63.3c0.223,-0.222 0.223,-0.583 0,-0.805l-30.411,-30.458c-0.222,-0.222 -0.583,-0.222 -0.805,0l-0.804,0.806c-0.222,0.222 -0.222,0.583 -0,0.806l30.411,30.457c0.222,0.223 0.583,0.223 0.805,0l0.804,-0.806Z" style="fill:#fff;"/><path d="M62.868,32.037c-0.222,-0.222 -0.582,-0.222 -0.804,0l-30.647,30.694c-0.223,0.222 -0.223,0.583 -0,0.806l0.804,0.805c0.222,0.223 0.583,0.223 0.805,0l30.647,-30.693c0.222,-0.223 0.222,-0.584 -0,-0.806l-0.805,-0.806Z" style="fill:#fff;"/><rect x="55.446" y="79.414" width="14.412" height="14.93" style="fill:#454545;"/><rect x="53.094" y="93.848" width="20.481" height="0.496" style="fill:#fff;"/><path d="M62.59,37.022l24.645,24.316l-49.29,0l24.645,-24.316Z" style="fill:#fff;"/><path d="M93.579,62.698c0.222,-0.222 0.222,-0.583 -0,-0.806l-30.403,-30.466c-0.221,-0.222 -0.582,-0.222 -0.804,0l-0.804,0.806c-0.222,0.223 -0.222,0.584 -0,0.806l30.402,30.466c0.222,0.223 0.582,0.223 0.804,0l0.805,-0.806Z" style="fill:#fff;"/><path d="M62.873,31.426c-0.222,-0.222 -0.582,-0.222 -0.804,0l-30.638,30.703c-0.222,0.222 -0.222,0.583 -0,0.806l0.804,0.806c0.222,0.222 0.582,0.222 0.804,-0l30.638,-30.703c0.222,-0.222 0.222,-0.583 0,-0.806l-0.804,-0.806Z" style="fill:#fff;"/></svg>