<?xml version="1.0" encoding="UTF-8" standalone="no"?><!DOCTYPE svg PUBLIC "-//W3C//DTD SVG 1.1//EN" "http://www.w3.org/Graphics/SVG/1.1/DTD/svg11.dtd"><svg width="100%" height="100%" viewBox="0 0 63 63" version="1.1" xmlns="http://www.w3.org/2000/svg" xmlns:xlink="http://www.w3.org/1999/xlink" xml:space="preserve" xmlns:serif="http://www.serif.com/" style="fill-rule:evenodd;clip-rule:evenodd;stroke-linejoin:round;stroke-miterlimit:2;"><ellipse cx="25.738" cy="30.772" rx="5.238" ry="5.208" style="fill:#fff;"/><ellipse cx="36.216" cy="30.668" rx="5.238" ry="5.208" style="fill:#fff;"/><rect x="28.283" y="26.239" width="5.209" height="8.846" style="fill:#fff;"/><path d="M24.732,31.25l0,-1.764l0.24,-0l0.926,1.385l0,-1.385l0.224,-0l0,1.764l-0.239,0l-0.927,-1.386l-0,1.386l-0.224,0Z" style="fill:#00580f;fill-rule:nonzero;"/><path d="M26.488,29.735l-0,-0.249l0.217,-0l-0,0.249l-0.217,-0Zm-0,1.515l-0,-1.278l0.217,-0l-0,1.278l-0.217,0Z" style="fill:#00580f;fill-rule:nonzero;"/><path d="M26.995,31.356l0.21,0.031c0.009,0.065 0.034,0.113 0.074,0.142c0.053,0.04 0.127,0.06 0.22,0.06c0.1,0 0.178,-0.02 0.232,-0.06c0.055,-0.04 0.092,-0.096 0.111,-0.168c0.011,-0.044 0.016,-0.137 0.016,-0.278c-0.095,0.111 -0.213,0.167 -0.354,0.167c-0.176,0 -0.312,-0.063 -0.408,-0.19c-0.097,-0.127 -0.145,-0.279 -0.145,-0.456c0,-0.122 0.022,-0.235 0.066,-0.338c0.045,-0.103 0.109,-0.183 0.192,-0.239c0.084,-0.056 0.183,-0.084 0.296,-0.084c0.151,0 0.275,0.061 0.373,0.183l-0,-0.154l0.2,-0l-0,1.105c-0,0.199 -0.02,0.34 -0.061,0.423c-0.041,0.083 -0.105,0.148 -0.193,0.196c-0.087,0.049 -0.196,0.073 -0.324,0.073c-0.152,-0 -0.276,-0.035 -0.369,-0.103c-0.094,-0.069 -0.14,-0.172 -0.136,-0.31Zm0.179,-0.768c-0,0.168 0.033,0.29 0.1,0.367c0.066,0.077 0.15,0.116 0.25,0.116c0.1,-0 0.183,-0.039 0.25,-0.115c0.068,-0.077 0.102,-0.197 0.102,-0.361c-0,-0.156 -0.035,-0.274 -0.105,-0.354c-0.069,-0.079 -0.153,-0.119 -0.25,-0.119c-0.097,0 -0.179,0.039 -0.246,0.118c-0.067,0.078 -0.101,0.194 -0.101,0.348Z" style="fill:#00580f;fill-rule:nonzero;"/><path d="M28.405,31.25l0,-1.764l0.217,-0l-0,0.633c0.101,-0.117 0.228,-0.176 0.382,-0.176c0.095,0 0.177,0.019 0.247,0.056c0.07,0.037 0.12,0.089 0.15,0.155c0.03,0.065 0.045,0.161 0.045,0.286l0,0.81l-0.216,0l-0,-0.81c-0,-0.108 -0.024,-0.187 -0.071,-0.236c-0.047,-0.05 -0.113,-0.074 -0.199,-0.074c-0.064,-0 -0.125,0.016 -0.181,0.049c-0.057,0.034 -0.097,0.079 -0.121,0.136c-0.024,0.057 -0.036,0.135 -0.036,0.236l-0,0.699l-0.217,0Z" style="fill:#00580f;fill-rule:nonzero;"/><path d="M30.249,31.056l0.031,0.192c-0.061,0.012 -0.115,0.019 -0.164,0.019c-0.078,-0 -0.139,-0.013 -0.182,-0.037c-0.044,-0.025 -0.074,-0.058 -0.092,-0.099c-0.018,-0.04 -0.026,-0.125 -0.026,-0.255l-0,-0.736l-0.159,0l-0,-0.168l0.159,-0l-0,-0.317l0.215,-0.13l0,0.447l0.218,-0l-0,0.168l-0.218,0l0,0.748c0,0.062 0.004,0.101 0.011,0.119c0.008,0.018 0.021,0.032 0.038,0.042c0.017,0.01 0.042,0.016 0.074,0.016c0.024,-0 0.056,-0.003 0.095,-0.009Z" style="fill:#00580f;fill-rule:nonzero;"/><path d="M31.677,31.25l-0.683,-1.764l0.253,-0l0.458,1.281c0.037,0.103 0.068,0.199 0.093,0.289c0.027,-0.096 0.059,-0.192 0.095,-0.289l0.476,-1.281l0.239,-0l-0.691,1.764l-0.24,0Z" style="fill:#00580f;fill-rule:nonzero;"/><path d="M32.746,29.735l0,-0.249l0.217,-0l-0,0.249l-0.217,-0Zm0,1.515l0,-1.278l0.217,-0l-0,1.278l-0.217,0Z" style="fill:#00580f;fill-rule:nonzero;"/><path d="M33.206,30.868l0.214,-0.033c0.012,0.086 0.046,0.151 0.101,0.197c0.055,0.046 0.131,0.069 0.23,0.069c0.1,-0 0.173,-0.02 0.221,-0.061c0.049,-0.041 0.073,-0.088 0.073,-0.143c-0,-0.049 -0.022,-0.087 -0.064,-0.115c-0.03,-0.019 -0.104,-0.044 -0.222,-0.074c-0.158,-0.04 -0.269,-0.074 -0.33,-0.104c-0.061,-0.029 -0.108,-0.069 -0.14,-0.121c-0.031,-0.052 -0.047,-0.109 -0.047,-0.172c-0,-0.057 0.013,-0.109 0.039,-0.158c0.026,-0.049 0.062,-0.089 0.107,-0.121c0.033,-0.025 0.079,-0.046 0.137,-0.063c0.059,-0.017 0.121,-0.026 0.188,-0.026c0.1,0 0.188,0.014 0.264,0.043c0.075,0.029 0.131,0.068 0.168,0.118c0.036,0.049 0.061,0.115 0.074,0.198l-0.212,0.029c-0.009,-0.066 -0.037,-0.118 -0.083,-0.155c-0.046,-0.036 -0.112,-0.055 -0.196,-0.055c-0.099,0 -0.17,0.017 -0.213,0.049c-0.042,0.033 -0.064,0.072 -0.064,0.116c0,0.028 0.009,0.053 0.027,0.076c0.017,0.023 0.045,0.042 0.083,0.058c0.022,0.008 0.085,0.026 0.191,0.055c0.153,0.041 0.26,0.074 0.321,0.1c0.061,0.027 0.108,0.064 0.143,0.114c0.034,0.05 0.051,0.112 0.051,0.186c0,0.072 -0.021,0.14 -0.063,0.204c-0.042,0.063 -0.103,0.113 -0.182,0.148c-0.08,0.034 -0.169,0.052 -0.27,0.052c-0.166,-0 -0.292,-0.035 -0.379,-0.104c-0.088,-0.069 -0.143,-0.171 -0.167,-0.307Z" style="fill:#00580f;fill-rule:nonzero;"/><path d="M34.526,29.735l0,-0.249l0.217,-0l-0,0.249l-0.217,-0Zm0,1.515l0,-1.278l0.217,-0l-0,1.278l-0.217,0Z" style="fill:#00580f;fill-rule:nonzero;"/><path d="M34.992,30.611c-0,-0.237 0.066,-0.412 0.197,-0.526c0.11,-0.095 0.244,-0.142 0.402,-0.142c0.176,0 0.319,0.058 0.431,0.173c0.112,0.115 0.167,0.274 0.167,0.477c0,0.164 -0.024,0.294 -0.074,0.388c-0.049,0.094 -0.121,0.168 -0.215,0.22c-0.094,0.052 -0.197,0.078 -0.309,0.078c-0.179,-0 -0.323,-0.057 -0.434,-0.172c-0.11,-0.115 -0.165,-0.28 -0.165,-0.496Zm0.222,-0c0,0.164 0.036,0.286 0.108,0.368c0.071,0.081 0.161,0.122 0.269,0.122c0.108,-0 0.197,-0.041 0.269,-0.123c0.071,-0.082 0.107,-0.207 0.107,-0.374c-0,-0.158 -0.036,-0.278 -0.108,-0.36c-0.072,-0.081 -0.161,-0.122 -0.268,-0.122c-0.108,0 -0.198,0.041 -0.269,0.122c-0.072,0.081 -0.108,0.203 -0.108,0.367Z" style="fill:#00580f;fill-rule:nonzero;"/><path d="M36.443,31.25l0,-1.278l0.195,-0l0,0.182c0.094,-0.141 0.23,-0.211 0.407,-0.211c0.077,0 0.148,0.014 0.212,0.042c0.065,0.027 0.113,0.064 0.145,0.108c0.032,0.045 0.055,0.099 0.068,0.161c0.008,0.04 0.012,0.11 0.012,0.21l-0,0.786l-0.217,-0l0,-0.777c0,-0.089 -0.008,-0.155 -0.025,-0.198c-0.017,-0.044 -0.047,-0.079 -0.09,-0.105c-0.043,-0.026 -0.093,-0.039 -0.151,-0.039c-0.092,-0 -0.172,0.029 -0.239,0.088c-0.067,0.058 -0.1,0.169 -0.1,0.333l-0,0.698l-0.217,0Z" style="fill:#00580f;fill-rule:nonzero;"/></svg>